<?xml version="1.0" encoding="iso-8859-1"?>
<!-- Generator: Adobe Illustrator 19.0.0, SVG Export Plug-In . SVG Version: 6.00 Build 0)  -->
<svg version="1.1" id="Layer_1" xmlns="http://www.w3.org/2000/svg" xmlns:xlink="http://www.w3.org/1999/xlink" x="0px" y="0px"
	 viewBox="0 0 512 512" style="enable-background:new 0 0 512 512;" xml:space="preserve">
<g transform="translate(1 1)">
	<g>
		<g>
			<path d="M101.4,383c-9.387,0-17.067,7.68-17.067,17.067s7.68,17.067,17.067,17.067c9.387,0,17.067-7.68,17.067-17.067
				S110.787,383,101.4,383z"/>
			<path d="M323.267,383c-9.387,0-17.067,7.68-17.067,17.067s7.68,17.067,17.067,17.067s17.067-7.68,17.067-17.067
				S332.653,383,323.267,383z"/>
			<path d="M502.467,289.133h-25.6v-25.6c0-5.12-3.413-8.533-8.533-8.533s-8.533,3.413-8.533,8.533v25.6h-34.133V83.48
				c0-18.773-14.507-33.28-32.427-33.28H32.28C13.507,50.2-1,64.707-1,83.48v205.653V306.2v72.533
				c0,16.213,13.653,29.867,29.867,29.867h13.403c4.075,29.155,28.753,51.2,59.131,51.2c30.378,0,55.056-22.045,59.131-51.2h103.605
				c4.075,29.155,28.753,51.2,59.131,51.2c30.378,0,55.056-22.045,59.131-51.2h43.269V306.2h76.8c5.12,0,8.533-3.413,8.533-8.533
				C511,292.547,507.587,289.133,502.467,289.133z M16.067,220.867h119.467c5.12,0,8.533-3.413,8.533-8.533
				s-3.413-8.533-8.533-8.533H16.067v-25.6H101.4c5.12,0,8.533-3.413,8.533-8.533c0-5.12-3.413-8.533-8.533-8.533H16.067V83.48
				c0-9.387,6.827-16.213,16.213-16.213h360.107c9.387,0,16.213,7.68,16.213,16.213v205.653H16.067V220.867z M101.4,442.733
				c-23.893,0-42.667-18.773-42.667-42.667c0-23.893,18.773-42.667,42.667-42.667c23.893,0,42.667,18.773,42.667,42.667
				C144.067,423.96,125.293,442.733,101.4,442.733z M323.267,442.733c-23.893,0-42.667-18.773-42.667-42.667
				c0-23.893,18.773-42.667,42.667-42.667c23.893,0,42.667,18.773,42.667,42.667C365.933,423.96,347.16,442.733,323.267,442.733z
				 M408.6,391.533h-26.203c-4.075-29.155-28.753-51.2-59.131-51.2c-0.138,0-0.274,0.009-0.412,0.01
				c-0.148-0.001-0.294-0.01-0.441-0.01c-29.867,0-54.613,22.187-58.88,51.2H160.531c-3.821-27.339-25.761-48.416-53.528-50.936
				c-0.203-0.019-0.409-0.029-0.613-0.046c-0.699-0.056-1.397-0.114-2.103-0.147c-0.957-0.046-1.919-0.072-2.887-0.072
				s-1.93,0.026-2.887,0.072c-0.706,0.033-1.404,0.09-2.103,0.147c-0.204,0.017-0.41,0.027-0.613,0.046
				c-27.767,2.52-49.707,23.597-53.528,50.936H28.867c-6.827,0-12.8-5.973-12.8-12.8V306.2H408.6V391.533z"/>
		</g>
	</g>
</g>
<g>
</g>
<g>
</g>
<g>
</g>
<g>
</g>
<g>
</g>
<g>
</g>
<g>
</g>
<g>
</g>
<g>
</g>
<g>
</g>
<g>
</g>
<g>
</g>
<g>
</g>
<g>
</g>
<g>
</g>
</svg>
